<svg width="24" height="24" viewBox="0 0 24 24" fill="none" xmlns="http://www.w3.org/2000/svg">
<path d="M9.04487 19.6958C9.12735 19.8726 9.15926 20.0712 9.1357 20.2677L10.625 20.4463C10.6817 19.9734 10.6055 19.4931 10.4042 19.0616L9.04487 19.6958ZM9.1357 20.2677C9.11215 20.4641 9.03449 20.6474 8.91431 20.7964L10.0818 21.7381C10.3807 21.3677 10.5683 20.9192 10.625 20.4463L9.1357 20.2677ZM8.91431 20.7964C8.79428 20.9452 8.63738 21.0531 8.46377 21.1102L8.93252 22.5351C9.38458 22.3863 9.78285 22.1088 10.0818 21.7381L8.91431 20.7964ZM8.46377 21.1102C8.29033 21.1672 8.10524 21.1721 7.92951 21.1243L7.53598 22.5717C7.99537 22.6966 8.48029 22.6838 8.93252 22.5351L8.46377 21.1102ZM7.92951 21.1243C7.75363 21.0765 7.59203 20.9772 7.46514 20.8354L6.34718 21.8355C6.66467 22.1904 7.07674 22.4469 7.53598 22.5717L7.92951 21.1243ZM7.46514 20.8354C7.33809 20.6934 7.25152 20.5148 7.21823 20.3201L5.73968 20.5728C5.81994 21.0423 6.02986 21.4807 6.34718 21.8355L7.46514 20.8354ZM7.21823 20.3201C7.18493 20.1253 7.20682 19.925 7.28053 19.7437L5.891 19.1788C5.71166 19.6199 5.65942 20.1034 5.73968 20.5728L7.21823 20.3201ZM7.28053 19.7437C7.35419 19.5626 7.47566 19.4098 7.62787 19.3014L6.758 18.0794C6.37032 18.3554 6.0704 18.7376 5.891 19.1788L7.28053 19.7437ZM17.7772 19.4548C17.9196 19.5792 18.0264 19.7451 18.0823 19.9343L19.5208 19.5092C19.3854 19.051 19.1239 18.6397 18.7645 18.3255L17.7772 19.4548ZM18.0823 19.9343C18.1382 20.1235 18.1401 20.3257 18.0875 20.5161L19.5334 20.9154C19.6605 20.455 19.6562 19.9672 19.5208 19.5092L18.0823 19.9343ZM18.0875 20.5161C18.0349 20.7064 17.931 20.8745 17.7907 21.0017L18.7986 22.1127C19.1521 21.7919 19.4062 21.3759 19.5334 20.9154L18.0875 20.5161ZM17.7907 21.0017C17.6507 21.1288 17.4803 21.2099 17.3005 21.2384L17.535 22.72C18.0065 22.6453 18.4449 22.4336 18.7986 22.1127L17.7907 21.0017ZM17.3005 21.2384C17.1208 21.2669 16.9364 21.2419 16.7687 21.1655L16.1468 22.5305C16.5814 22.7285 17.0635 22.7946 17.535 22.72L17.3005 21.2384ZM16.7687 21.1655C16.6007 21.089 16.4547 20.9632 16.3502 20.8003L15.0877 21.6102C15.3456 22.0123 15.7125 22.3327 16.1468 22.5305L16.7687 21.1655ZM16.3502 20.8003C16.2456 20.6372 16.1877 20.4449 16.1855 20.2462L14.6856 20.2631C14.691 20.7408 14.8299 21.2084 15.0877 21.6102L16.3502 20.8003ZM16.1855 20.2462C16.1833 20.0475 16.2368 19.8537 16.3378 19.688L15.0571 18.9072C14.8085 19.3148 14.6802 19.7854 14.6856 20.2631L16.1855 20.2462Z" fill="white"/>
<path d="M4.83152 14.6249L4.10304 14.8032L4.83152 14.6249ZM4.83152 9.03105L5.56 9.20941L4.83152 9.03105ZM20.6628 9.03105L21.3913 8.85269L20.6628 9.03105ZM20.6628 14.6248L21.3913 14.8032L20.6628 14.6248ZM15.4356 19.4632L15.2711 18.7315H15.2711L15.4356 19.4632ZM10.0588 19.4632L10.2232 18.7315H10.2232L10.0588 19.4632ZM10.0588 4.19267L10.2232 4.92442L10.0588 4.19267ZM15.4356 4.19267L15.6 3.46092V3.46092L15.4356 4.19267ZM9.58528 19.3568L9.42084 20.0886H9.42084L9.58528 19.3568ZM15.9091 19.3568L16.0735 20.0886L16.0735 20.0886L15.9091 19.3568ZM15.9091 4.29907L15.7446 5.03083L15.9091 4.29907ZM9.58528 4.29908L9.42084 3.56732V3.56732L9.58528 4.29908ZM5.72452 5.75613L4.98684 5.89155L4.98684 5.89155L5.72452 5.75613ZM5.12913 6.6666C5.20392 7.07401 5.59482 7.34364 6.00222 7.26885C6.40963 7.19406 6.67926 6.80316 6.60447 6.39576L5.12913 6.6666ZM3.13142 2.2616C2.72361 2.18902 2.33418 2.46078 2.2616 2.86858C2.18902 3.27639 2.46078 3.66582 2.86858 3.7384L3.13142 2.2616ZM9.74972 5.03083L10.2232 4.92442L9.89436 3.46091L9.42084 3.56732L9.74972 5.03083ZM15.2711 4.92442L15.7446 5.03083L16.0735 3.56732L15.6 3.46092L15.2711 4.92442ZM15.7446 18.6251L15.2711 18.7315L15.6 20.195L16.0735 20.0886L15.7446 18.6251ZM10.2232 18.7315L9.74972 18.6251L9.42084 20.0886L9.89436 20.195L10.2232 18.7315ZM5.56 14.4465C5.13914 12.7276 5.13914 10.9283 5.56 9.20941L4.10304 8.85268C3.62479 10.8059 3.62479 12.85 4.10304 14.8032L5.56 14.4465ZM19.9344 9.20942C20.3552 10.9283 20.3552 12.7276 19.9344 14.4465L21.3913 14.8032C21.8696 12.85 21.8696 10.8059 21.3913 8.85269L19.9344 9.20942ZM15.2711 18.7315C13.6081 19.1052 11.8862 19.1052 10.2232 18.7315L9.89436 20.195C11.7739 20.6174 13.7204 20.6174 15.6 20.195L15.2711 18.7315ZM10.2232 4.92442C11.8862 4.55071 13.6081 4.55071 15.2711 4.92442L15.6 3.46092C13.7204 3.03854 11.7739 3.03854 9.89436 3.46091L10.2232 4.92442ZM9.74972 18.6251C7.7049 18.1656 6.07592 16.5536 5.56 14.4465L4.10304 14.8032C4.75032 17.4468 6.80386 19.5005 9.42084 20.0886L9.74972 18.6251ZM16.0735 20.0886C18.6905 19.5005 20.744 17.4468 21.3913 14.8032L19.9344 14.4465C19.4184 16.5536 17.7895 18.1656 15.7446 18.6251L16.0735 20.0886ZM15.7446 5.03083C17.7895 5.49034 19.4184 7.10233 19.9344 9.20942L21.3913 8.85269C20.744 6.20908 18.6905 4.15541 16.0735 3.56732L15.7446 5.03083ZM9.42084 3.56732C6.80386 4.15541 4.75032 6.20908 4.10304 8.85268L5.56 9.20941C6.07592 7.10232 7.7049 5.49034 9.74972 5.03083L9.42084 3.56732ZM5.29343 16.1091H20.2009V14.6091H5.29343V16.1091ZM4.98684 5.89155L5.12913 6.6666L6.60447 6.39576L6.46219 5.62071L4.98684 5.89155ZM2.86858 3.7384C3.92972 3.92725 4.78224 4.77704 4.98684 5.89155L6.46219 5.62071C6.14833 3.91105 4.82893 2.56372 3.13142 2.2616L2.86858 3.7384Z" fill="white"/>
<path d="M15 7L15.0408 7.0068C16.7484 7.29141 18 8.76883 18 10.5" stroke="white" stroke-width="1.5" stroke-linecap="round"/>
</svg>
